@startuml
[*] --> Created : Create
Created --> RequestSent: Send Request
RequestSent --> FeeInvoiceReceived:  On FeeInvoice
RequestSent --> Canceled: Cancel Msg Received
'note on link: Receiver sends cancel msg due to policy
FeeInvoiceReceived --> FeeInvPaid: Pay FeeInvoice
FeeInvoiceReceived --> Canceled: Canceled
'note on link: Sender can't/doesn't want to pay the fee
FeeInvPaid --> Broadcasted: OnTxOpenedMsg
Broadcasted --> Confirmed: Wait for confs
Confirmed --> ClaimInvPaid: Pay Claim Inv
Confirmed --> Aborted: Cancel Payment
Aborted --> ClaimedCltv: Wait for claim msg
ClaimInvPaid --> ClaimedPreimage: Claim Tx / send claim msg
@enduml